# xmcd
# Track frame offsets:
# 150
# 13871
# 25666
# 37682
# 49797
# 61892
# 71993
# 83568
# 98111
# 109647
#
# Disc length: 1617 seconds
# Revision: 0
# Processed by: cddbd v1.5.2PL0 Copyright (c) Steve Scherf et al.
# Submitted via: VisiTrax 2.9.10.228 - For more info visit www.synapsa.com
#
DISCID=73064f0a
DTITLE=Ray Sanders - Country
DYEAR=2007
DGENRE=Country
TTITLE0=Almost persuaded
TTITLE1=It's such a pretty world today
TTITLE2=Piece by piece
TTITLE3=Before the next teardrop falls
TTITLE4=You're a pretty lady, lady
TTITLE5=Something called love
TTITLE6=Reach for me
TTITLE7=Lovesick blues
TTITLE8=My shoes keep walking back to you
TTITLE9=Heart full of hurtin'
EXTD=
EXTT0=
EXTT1=
EXTT2=
EXTT3=
EXTT4=
EXTT5=
EXTT6=
EXTT7=
EXTT8=
EXTT9=
PLAYORDER=
